<svg id="Layer_1" data-name="Layer 1" xmlns="http://www.w3.org/2000/svg" viewBox="0 0 2144.44 1779.68">
  <defs>
    <style>
      .cls-1{fill:#606C38}
    </style>
  </defs>
  <path class="cls-1" d="M2701.42 2183.39l-215.18-84 52.47-267.86h153.58a15.76 15.76 0 100-31.52h-426.45L2112 1759.68l-43.94-88 155-37.57h115.69v48.71h-44.85a15.76 15.76 0 000 31.52h174.4a15.76 15.76 0 100-31.52H2446v-48.71h246.34a15.77 15.77 0 000-31.53H2446V1399c84.49-.38 167.7-8.4 167.7-180.11v-.75c.42 0 .81.12 1.23.12h44.83a15.76 15.76 0 000-31.52h-44.83c-.42 0-.81.09-1.23.13v-45.15c.42 0 .81.13 1.23.13h44.83a15.77 15.77 0 000-31.53h-44.83c-.42 0-.81.09-1.23.13v-45.15c.42 0 .81.13 1.23.13h44.83a15.77 15.77 0 000-31.53h-44.83c-.42 0-.81.09-1.23.13V984c0-23.81-10.41-44.73-26.07-56.73l21.36-17.79a15.76 15.76 0 00-20.17-24.22l-15.85 13.2v-14.9a15.76 15.76 0 00-31.52 0v14.9l-15.84-13.2a15.76 15.76 0 10-20.18 24.22l21.36 17.79c-15.65 12-26.07 32.92-26.07 56.73v234.89c0 60.75-17.3 66.52-54.72 67.08v-252.7c0-21.87-9.3-41.19-23.43-52.69l21.58-18a15.76 15.76 0 00-20.17-24.22l-15.85 13.19v-14.9a15.76 15.76 0 10-31.52 0v14.95l-15.85-13.18a15.76 15.76 0 00-20.17 24.22l21.58 18c-14.13 11.5-23.43 30.82-23.43 52.69v135.13c-27.66-.62-38.35-5.82-38.35-50.19V931.14c0-20.35-9.12-38.18-22.75-48.25l26.28-21.89a15.76 15.76 0 10-20.17-24.21L2267.9 850v-15a15.77 15.77 0 00-31.53 0v14.9l-15.84-13.19a15.76 15.76 0 10-20.18 24.29l26.33 21.93c-13.63 10.07-22.75 27.9-22.75 48.25v187.09c0 138.6 66.58 146.23 134.76 146.65v337.71h-117.58a16 16 0 00-3.71.45l-176 42.68a20.65 20.65 0 00-2.82 1c-.19.09-.39.14-.57.23a15.52 15.52 0 00-2.76 1.79c-.24.19-.44.43-.67.63a16.16 16.16 0 00-1.68 1.73c-.26.32-.47.68-.7 1a13.74 13.74 0 00-.87 1.24L1962 1778.23a15.54 15.54 0 00-6.6-1.5h-66v-634.88c87.52-.2 168.24-5.85 181-150.58a15.76 15.76 0 002.77.28h44.82a15.76 15.76 0 000-31.52h-44.82c-.39 0-.75.09-1.12.11.07-3.82.18-7.59.18-11.57V915c.31 0 .62.09.94.09h44.82a15.76 15.76 0 000-31.52h-44.82c-.32 0-.63.08-.94.1v-45.05c.31 0 .62.1.94.1h44.82a15.77 15.77 0 000-31.53h-44.82c-.32 0-.63.08-.94.1V762.2c.31 0 .62.1.94.1h44.82a15.77 15.77 0 000-31.53h-44.82c-.32 0-.63.08-.94.1v-36c0-28-13.48-52.16-33-63.93l27.36-22.78a15.76 15.76 0 00-20.17-24.22l-18.15 15.11v-17.57a15.76 15.76 0 10-31.52 0V599l-18.14-15.1a15.76 15.76 0 10-20.18 24.22l27.36 22.78c-19.55 11.77-33 36-33 63.93v253.7c0 68.35-21.2 73.38-63.37 73.75V557c0-25.87-11.56-48.52-28.78-61.09l23.11-19.25a15.76 15.76 0 10-20.18-24.21l-18.14 15.1v-17.63a15.76 15.76 0 10-31.52 0v17.58l-18.14-15.1a15.76 15.76 0 10-20.18 24.21l23.11 19.25c-17.22 12.57-28.78 35.22-28.78 61.09v642.82c-38.62-.84-58-8.26-58-73.67V872.4c0-25.87-11.55-48.51-28.78-61.09l23.11-19.23a15.76 15.76 0 00-20.17-24.22L1667.77 783v-17.61a15.76 15.76 0 10-31.52 0V783l-18.14-15.1a15.76 15.76 0 10-20.18 24.22l23.07 19.19c-17.22 12.58-28.78 35.22-28.78 61.09v253.7c0 183 84.2 192.75 177.54 193.27v467.91a15.76 15.76 0 0031.52 0V557c0-21.71 12.93-40.05 28.23-40.05s28.23 18.34 28.23 40.05v1219.73h-6.13a15.77 15.77 0 000 31.53h93.62L1882.11 1922l-191.27 118.47a15.77 15.77 0 0010.09 29.06l251.9-28.67 59.11 118.22c.09.19.25.33.35.51a15.81 15.81 0 001.79 2.6c.21.25.41.5.63.74a16.28 16.28 0 003 2.45c.16.09.33.15.49.24a15.54 15.54 0 002.23 1.13c.18.06.36 0 .54.1a15.68 15.68 0 005.11.94h184.4c1.18-.1 1.87-.1 2.58-.21l253.53-42 223.41 87.18a15.76 15.76 0 0011.45-29.37zm-331.2-500.56v-649.54c0-17.5 10.11-32.29 22.1-32.29s22.1 14.79 22.1 32.29v649.54zm161.72-456.58a16.06 16.06 0 00.26-2.52V984c0-19.47 11.43-35.92 25-35.92s25 16.45 25 35.92v234.89c0 141.6-53.7 148.27-136.18 148.59v-50c41.41-.68 83.51-8.48 85.92-91.23zm-296.48-108V931.14c0-13.52 7.79-25.39 16.67-25.39s16.69 11.87 16.69 25.39v190.93a16.7 16.7 0 00.21 2.13c2 67.31 36.94 74.9 69.66 75.71v33.46c-64.69-.37-103.23-6.51-103.23-115.14zm-251.37-163.43c0-.35.1-.69.1-1.05v-258.9c0-21.72 12.93-40 28.23-40s28.23 18.33 28.23 40v253.7c0 155.92-59.8 161.56-151.35 161.76v-56.49c45.47-.47 92.7-7.09 94.79-99.02zm-360.31 171.28V872.4c0-21.71 12.93-40 28.23-40s28.23 18.34 28.23 40v258.91c0 .36.08.69.11 1 2 88.34 45.69 97.9 89.45 98.93v56.56c-88.53-.42-146.02-8.8-146.02-161.7zm831.1 969.45l-225.44 37.33 47.83-301.32h229.33zm-475.06-71.25l129.08-232.83 35.09 9.2L2024.14 2113zm194.85-215.58l71.34 18.71-49 308.81H2049zm-272.47 137.89a15.82 15.82 0 005.48-5.75l136.66-246 38.9 77.89-131.09 236.45-185 21.06z" transform="translate(-567.02 -434.16)"/>
  <path class="cls-1" d="M2557.16 1685.88a15.76 15.76 0 100 31.52h57.72a15.76 15.76 0 100-31.52zM1733.62 1789.89a15.77 15.77 0 00-15.76-15.76h-88.41a15.76 15.76 0 100 31.52h88.41a15.77 15.77 0 0015.76-15.76zM1713.4 1871.9a15.77 15.77 0 0015.76 15.76h78.4a15.76 15.76 0 000-31.52h-78.4a15.77 15.77 0 00-15.76 15.76zM1525.84 1868.72l-46.63-272.09c-.2-.85-.36-1.3-.49-1.76a15.07 15.07 0 00-.61-1.79 13.07 13.07 0 00-.6-1.18 16.38 16.38 0 00-1-1.67c-.26-.36-.53-.69-.82-1a14.88 14.88 0 00-1.34-1.41c-.17-.17-.31-.37-.5-.53L1330 1465.49a15.81 15.81 0 00-8.48-3.65l-313.72-34.32a16 16 0 00-1.71-.09h-64.78v-175c84.49-.37 167.71-8.39 167.71-180.11V837.46c0-23.81-10.41-44.72-26.06-56.73l21.36-17.79a15.76 15.76 0 10-20.18-24.21l-15.85 13.19V737a15.76 15.76 0 10-31.52 0v14.9l-15.85-13.19a15.76 15.76 0 10-20.17 24.21l21.35 17.79c-15.64 12-26.06 32.92-26.06 56.73v234.89c0 60.76-17.3 66.53-54.73 67.08V886.73c0-21.86-9.3-41.18-23.42-52.68l21.58-18a15.76 15.76 0 00-20.18-24.22l-15.84 13.2v-14.9a15.76 15.76 0 10-31.52 0v14.9l-15.85-13.2a15.76 15.76 0 10-20.18 24.22l21.59 18c-14.13 11.51-23.43 30.82-23.43 52.68v135.14c-27.66-.61-38.35-5.82-38.35-50.19V784.59c0-20.35-9.12-38.19-22.75-48.26l26.33-21.92a15.76 15.76 0 00-20.18-24.22l-15.84 13.2v-14.9a15.76 15.76 0 10-31.52 0v14.9l-15.85-13.2a15.76 15.76 0 10-20.18 24.22l26.34 21.93c-13.64 10.06-22.75 27.9-22.75 48.25v38.34h-29.07a15.77 15.77 0 000 31.53h29.07v44.89h-29.07a15.77 15.77 0 000 31.53h29.07v40.8c0 1.4.05 2.71.06 4.09h-29.13a15.76 15.76 0 000 31.52H701c10.81 104.31 71.24 110.67 133 111v309.09H582.78a15.76 15.76 0 000 31.52h251.28v87.72h-88.3a15.76 15.76 0 000 31.52H958.5a15.76 15.76 0 100-31.52h-17.19V1459h63.9l308.08 33.71 126 106.61-55.42 46.68-166.76 20.09H582.78a15.77 15.77 0 000 31.53h315.81l17.32 270.22-333.15.34a15.77 15.77 0 000 31.53l348-.36 343.47 85.89a18.72 18.72 0 003.83.47 16.5 16.5 0 004.9-.82 16.16 16.16 0 001.62-.79 15.12 15.12 0 002.46-1.2l149.79-103.93 169.26 20.63a17.65 17.65 0 001.92.11 15.76 15.76 0 0011.72-26.29zm-498.53-789a15.93 15.93 0 00.25-2.51V837.46c0-19.46 11.44-35.91 25-35.91s25 16.45 25 35.91v234.89c0 141.61-53.71 148.28-136.19 148.59v-50c41.43-.69 83.53-8.49 85.94-91.25zm-296.48-108V784.59c0-13.53 7.79-25.4 16.68-25.4s16.68 11.87 16.68 25.4v190.92a16.52 16.52 0 00.21 2.13c2 67.32 36.94 74.91 69.66 75.72v33.46c-64.65-.35-103.23-6.51-103.23-115.14zm134.75 575V886.73c0-17.5 10.13-32.27 22.11-32.27s22.1 14.77 22.1 32.27v659.94zm370.55 148.84l140.84-17 38.87 276.6-126 87.45zm-31.59 2.07l54.33 351.28-311.17-77.86-17.52-273.47zm242.18 250.79l-39.47-280.9 45.53-38.39 42.76 249.44a15.82 15.82 0 003.8 7.87l68.91 76.79z" transform="translate(-567.02 -434.16)"/>
  <path class="cls-1" d="M1191.5 1578.19a15.76 15.76 0 100-31.52h-131.69a15.76 15.76 0 100 31.52zM877.46 2071.45H790a15.76 15.76 0 000 31.52h87.5a15.76 15.76 0 000-31.52zM1358.58 2158.21H965.87a15.77 15.77 0 100 31.53h392.71a15.77 15.77 0 000-31.53zM1510.28 2060.4h-66.43a15.76 15.76 0 000 31.52h66.43a15.76 15.76 0 000-31.52zM1840.71 2165.58h-111.55a15.76 15.76 0 000 31.52h111.55a15.76 15.76 0 100-31.52zM1243.08 622.84a62.94 62.94 0 10-62.93-62.93 63 63 0 0062.93 62.93zm0-94.34a31.41 31.41 0 11-31.41 31.41 31.44 31.44 0 0131.41-31.41zM1390.43 917.42a51.21 51.21 0 10-51.2-51.2 51.26 51.26 0 0051.2 51.2zm0-70.88a19.68 19.68 0 11-19.68 19.68 19.7 19.7 0 0119.68-19.68zM1993.87 1383.28a51.21 51.21 0 1051.2-51.2 51.27 51.27 0 00-51.2 51.2zm70.89 0a19.69 19.69 0 11-19.69-19.68 19.7 19.7 0 0119.69 19.68zM2329.28 647.26a51.21 51.21 0 10-51.2-51.21 51.27 51.27 0 0051.2 51.21zm0-70.89a19.69 19.69 0 11-19.68 19.68 19.69 19.69 0 0119.68-19.68zM1290.25 1208a15.77 15.77 0 000 31.53H1355a15.77 15.77 0 000-31.53zM1521.21 648.44h74.6a15.76 15.76 0 000-31.52h-74.6a15.76 15.76 0 100 31.52zM2434 766.6h63a15.77 15.77 0 000-31.53h-63a15.77 15.77 0 000 31.53zM2148.39 1505.46h41.45a15.77 15.77 0 000-31.53h-41.45a15.77 15.77 0 000 31.53zM836 565.14h41.45a15.76 15.76 0 000-31.52H836a15.76 15.76 0 000 31.52z" transform="translate(-567.02 -434.16)"/>
</svg>